<mxfile host="app.diagrams.net" modified="2021-04-11T17:19:52.757Z" agent="5.0 (Windows NT 10.0; Win64; x64) AppleWebKit/537.36 (KHTML, like Gecko) Chrome/89.0.4389.114 Safari/537.36 Edg/89.0.774.75" version="14.5.10" etag="nZfZwGdaMjtWzAZ3wZRm" type="github">
  <diagram id="BzeWuSWtje4ORMCNxh40" name="第 1 页">
    <mxGraphModel dx="2216" dy="2055" grid="1" gridSize="10" guides="1" tooltips="1" connect="1" arrows="1" fold="1" page="1" pageScale="1" pageWidth="827" pageHeight="1169" math="0" shadow="0">
      <root>
        <mxCell id="0" />
        <mxCell id="1" parent="0" />
        <mxCell id="CyOzIzgYeqlR9xBHR3Nr-87" value="" style="rounded=1;whiteSpace=wrap;html=1;strokeWidth=2;dashed=1;fillColor=#fff2cc;strokeColor=#d6b656;" vertex="1" parent="1">
          <mxGeometry x="-60" y="-218" width="940" height="434" as="geometry" />
        </mxCell>
        <mxCell id="67" value="" style="edgeStyle=none;rounded=0;orthogonalLoop=1;jettySize=auto;html=1;fontColor=#99FF99;strokeColor=#FF8000;" parent="1" source="65" target="66" edge="1">
          <mxGeometry relative="1" as="geometry" />
        </mxCell>
        <mxCell id="65" value="Chain A" style="html=1;shadow=0;dashed=0;shape=mxgraph.bootstrap.rrect;rSize=5;strokeColor=#006EAF;strokeWidth=1;fontColor=#ffffff;whiteSpace=wrap;align=center;verticalAlign=middle;spacingLeft=10;fontStyle=1;fontSize=18;fillColor=#FF8000;" parent="1" vertex="1">
          <mxGeometry x="-180" y="-50" width="100" height="100" as="geometry" />
        </mxCell>
        <mxCell id="76" value="" style="edgeStyle=none;rounded=0;orthogonalLoop=1;jettySize=auto;html=1;strokeColor=#FF8000;fontColor=#FF8000;" parent="1" source="66" target="75" edge="1">
          <mxGeometry relative="1" as="geometry" />
        </mxCell>
        <mxCell id="66" value="event" style="whiteSpace=wrap;html=1;shadow=0;dashed=0;fontSize=18;fontColor=#ffffff;fontStyle=1;strokeColor=#006EAF;strokeWidth=1;spacingLeft=10;fillColor=#FF8000;" parent="1" vertex="1">
          <mxGeometry x="-26" y="-30" width="120" height="60" as="geometry" />
        </mxCell>
        <mxCell id="72" value="" style="edgeStyle=none;rounded=0;orthogonalLoop=1;jettySize=auto;html=1;strokeColor=#FF8000;fontColor=#FF8000;exitX=1;exitY=0.5;exitDx=0;exitDy=0;" parent="1" source="75" target="71" edge="1">
          <mxGeometry relative="1" as="geometry">
            <mxPoint x="258.25" as="sourcePoint" />
          </mxGeometry>
        </mxCell>
        <mxCell id="74" value="" style="edgeStyle=none;rounded=0;orthogonalLoop=1;jettySize=auto;html=1;strokeColor=#FF8000;fontColor=#FF8000;" parent="1" source="71" target="73" edge="1">
          <mxGeometry relative="1" as="geometry" />
        </mxCell>
        <mxCell id="71" value="Message" style="whiteSpace=wrap;html=1;shadow=0;dashed=0;fontSize=18;fontColor=#ffffff;fontStyle=1;strokeColor=#001DBC;strokeWidth=1;fillColor=#0050ef;spacingLeft=10;" parent="1" vertex="1">
          <mxGeometry x="329" y="-30" width="120" height="60" as="geometry" />
        </mxCell>
        <mxCell id="78" value="" style="edgeStyle=none;rounded=0;orthogonalLoop=1;jettySize=auto;html=1;strokeColor=#FF8000;fontColor=#FF8000;" parent="1" source="73" target="77" edge="1">
          <mxGeometry relative="1" as="geometry" />
        </mxCell>
        <mxCell id="73" value="Writer" style="ellipse;whiteSpace=wrap;html=1;shadow=0;dashed=0;fontSize=18;fontColor=#ffffff;fontStyle=1;strokeColor=#A50040;strokeWidth=1;fillColor=#d80073;spacingLeft=10;" parent="1" vertex="1">
          <mxGeometry x="514" y="-40" width="120" height="80" as="geometry" />
        </mxCell>
        <mxCell id="75" value="Listener" style="ellipse;whiteSpace=wrap;html=1;shadow=0;dashed=0;fontSize=18;fontColor=#ffffff;fontStyle=1;strokeColor=#006EAF;strokeWidth=1;fillColor=#FF8000;spacingLeft=10;" parent="1" vertex="1">
          <mxGeometry x="154" y="-40" width="120" height="80" as="geometry" />
        </mxCell>
        <mxCell id="81" style="edgeStyle=none;rounded=0;orthogonalLoop=1;jettySize=auto;html=1;exitX=1;exitY=0.5;exitDx=0;exitDy=0;strokeColor=#FF8000;fontColor=#FF8000;" parent="1" source="77" target="80" edge="1">
          <mxGeometry relative="1" as="geometry" />
        </mxCell>
        <mxCell id="77" value="Transaction" style="whiteSpace=wrap;html=1;shadow=0;dashed=0;fontSize=18;fontColor=#ffffff;fontStyle=1;strokeColor=#A50040;strokeWidth=1;fillColor=#d80073;spacingLeft=10;" parent="1" vertex="1">
          <mxGeometry x="714" y="-30" width="120" height="60" as="geometry" />
        </mxCell>
        <mxCell id="80" value="Chain B" style="html=1;shadow=0;dashed=0;shape=mxgraph.bootstrap.rrect;rSize=5;strokeColor=#A50040;strokeWidth=1;fontColor=#ffffff;whiteSpace=wrap;align=center;verticalAlign=middle;spacingLeft=10;fontStyle=1;fontSize=18;fillColor=#d80073;" parent="1" vertex="1">
          <mxGeometry x="898" y="-51" width="100" height="100" as="geometry" />
        </mxCell>
        <mxCell id="84" value="1. Listener 监听到源链上的跨链事件" style="text;strokeColor=none;fillColor=none;html=1;fontSize=24;fontStyle=1;verticalAlign=middle;align=center;fontColor=#FF8000;" parent="1" vertex="1">
          <mxGeometry x="-60" y="-160" width="424" height="90" as="geometry" />
        </mxCell>
        <mxCell id="85" value="2. 处理程序解码出所需参数并构造为&lt;br&gt;Message转发给Writer" style="text;strokeColor=none;fillColor=none;html=1;fontSize=24;fontStyle=1;verticalAlign=middle;align=center;fontColor=#FF8000;" parent="1" vertex="1">
          <mxGeometry x="40" y="49" width="424" height="90" as="geometry" />
        </mxCell>
        <mxCell id="86" value="3. Writer 从Message中解析出参数并&lt;br&gt;构造交易提交到目标链上" style="text;strokeColor=none;fillColor=none;html=1;fontSize=24;fontStyle=1;verticalAlign=middle;align=center;fontColor=#FF8000;" parent="1" vertex="1">
          <mxGeometry x="445" y="-154" width="453" height="90" as="geometry" />
        </mxCell>
        <mxCell id="CyOzIzgYeqlR9xBHR3Nr-89" value="&lt;h1&gt;&lt;font style=&quot;font-size: 29px&quot; color=&quot;#ff0080&quot;&gt;Relayer&lt;/font&gt;&lt;/h1&gt;" style="text;html=1;strokeColor=none;fillColor=none;align=center;verticalAlign=middle;whiteSpace=wrap;rounded=0;" vertex="1" parent="1">
          <mxGeometry x="730" y="150" width="144" height="59" as="geometry" />
        </mxCell>
      </root>
    </mxGraphModel>
  </diagram>
</mxfile>
